<svg xmlns="http://www.w3.org/2000/svg" width="1440" height="360" viewBox="0 0 1440 360" role="img" aria-labelledby="title desc">
<title id="title">Fulcrum web header mockup</title>
<desc id="desc">Fulcrum identity mark: Andry sapling and fulcrum pivot fused into a restrained modern orthopedic symbol.</desc>
<style>
  :root { --navy:#0F2540; --brass:#B89968; --cream:#F4ECDB; --blood:#9E2A2B; }
  .word { font-family: 'Noto Serif Display','Noto Serif','Source Serif Pro',Georgia,serif; font-style: italic; font-weight: 700; letter-spacing: -1.8px; }
  .meta { font-family: Inter, -apple-system, BlinkMacSystemFont, 'Segoe UI', sans-serif; font-weight: 650; letter-spacing: .18em; }
  .nav { font-family: Inter, -apple-system, BlinkMacSystemFont, 'Segoe UI', sans-serif; font-weight: 500; }
  
</style>


<rect width="100%" height="100%" fill="#F4ECDB"/>
<rect x="40" y="40" width="1360" height="240" rx="28" fill="#0F2540"/>
<rect x="68" y="68" width="1304" height="184" rx="22" fill="none" stroke="#B89968" stroke-width="1.5" opacity=".55"/>
<g transform="translate(88 72) scale(.54)" style="--sapling:#F4ECDB; --leaf:#F4ECDB; --stroke:#0F2540; --wedge:#B89968; --line:#B89968; --pole:#B89968; --pole-hi:#F4ECDB; --pivot:#9E2A2B; --tie:#9E2A2B; --sapling-hi:#B89968;">
<g id="fulcrum-mark" fill="none" stroke-linecap="round" stroke-linejoin="round">
  <!-- ground / editorial rule -->
  <path d="M54 188 H202" stroke="var(--line, #B89968)" stroke-width="7"/>
  <!-- fulcrum wedge: small, readable, not mascot-like -->
  <path d="M102 188 L128 139 L154 188 Z" fill="var(--wedge, #B89968)" stroke="var(--stroke, #F4ECDB)" stroke-width="4"/>
  <circle cx="128" cy="139" r="7.5" fill="var(--pivot, #9E2A2B)" stroke="var(--stroke, #F4ECDB)" stroke-width="3"/>
  <!-- support pole / Andry pole modernized -->
  <path d="M113 176 V64" stroke="var(--pole, #B89968)" stroke-width="10"/>
  <path d="M113 176 V64" stroke="var(--pole-hi, #F4ECDB)" stroke-width="3" opacity=".8"/>
  <!-- sapling curve: wraps around pole, anchored at pivot -->
  <path d="M130 177 C139 155 142 139 135 121 C127 101 136 84 160 66" stroke="var(--sapling, #0F2540)" stroke-width="8"/>
  <path d="M130 177 C139 155 142 139 135 121 C127 101 136 84 160 66" stroke="var(--sapling-hi, #F4ECDB)" stroke-width="3" opacity=".65"/>
  <!-- leaves, restrained botanical geometry -->
  <path d="M158 66 C178 49 198 52 207 68 C189 76 172 77 158 66Z" fill="var(--leaf, #0F2540)" stroke="var(--stroke, #F4ECDB)" stroke-width="3"/>
  <path d="M137 102 C153 88 170 89 179 102 C163 110 150 111 137 102Z" fill="var(--leaf, #0F2540)" stroke="var(--stroke, #F4ECDB)" stroke-width="3"/>
  <path d="M132 126 C112 112 92 116 82 132 C102 140 119 140 132 126Z" fill="var(--leaf, #0F2540)" stroke="var(--stroke, #F4ECDB)" stroke-width="3"/>
  <!-- tie points: specific rope reference, no texture -->
  <path d="M96 99 C108 92 121 92 132 99" stroke="var(--tie, #9E2A2B)" stroke-width="5"/>
  <path d="M96 113 C108 106 121 106 132 113" stroke="var(--tie, #9E2A2B)" stroke-width="5"/>
  <path d="M97 99 L131 113" stroke="var(--tie, #9E2A2B)" stroke-width="3" opacity=".75"/>
  <path d="M97 113 L131 99" stroke="var(--tie, #9E2A2B)" stroke-width="3" opacity=".75"/>
</g></g>
<text class="word" x="238" y="151" font-size="68" fill="#F4ECDB"><tspan fill="#9E2A2B">F</tspan>ulcrum</text>
<text class="meta" x="244" y="183" font-size="12" fill="#B89968">ORTHOPAEDIC RESEARCH · CASE NOTES · EDITORIAL</text>
<g class="nav" font-size="16" fill="#F4ECDB" opacity=".88">
  <text x="782" y="146">Journal</text>
  <text x="878" y="146">Cases</text>
  <text x="964" y="146">Library</text>
  <text x="1060" y="146">About</text>
</g>
<rect x="1170" y="112" width="150" height="48" rx="24" fill="#F4ECDB"/>
<text class="nav" x="1245" y="143" font-size="16" text-anchor="middle" fill="#0F2540" font-weight="700">Submit</text>
<text class="nav" x="86" y="330" font-size="18" fill="#0F2540" opacity=".75">Modern web header direction: navy editorial bar, compact mark, academic wordmark, restrained brass system.</text>

</svg>